<mxfile host="app.diagrams.net" modified="2025-09-06T11:00:00.000Z" agent="GitHub Copilot" etag="3" version="22.1.5" type="device">
  <diagram name="Repository Overview" id="repo-overview-diagram">
    <mxGraphModel dx="2048" dy="1269" grid="1" gridSize="10" guides="1" tooltips="1" connect="1" arrows="1" fold="1" page="1" pageScale="1" pageWidth="1700" pageHeight="1100" math="0" shadow="0">
      <root>
        <mxCell id="0" />
        <mxCell id="1" parent="0" />
        <mxCell id="2" value="Developer" style="shape=umlActor;verticalLabelPosition=bottom;verticalAlign=top;html=1;outlineConnect=0;fillColor=#f5f5f5;strokeColor=#666666;" vertex="1" parent="1">
          <mxGeometry x="80" y="180" width="30" height="60" as="geometry" />
        </mxCell>
        <mxCell id="3" value="Local Development Environment" style="rounded=1;whiteSpace=wrap;html=1;dashed=1;fillColor=#e1d5e7;strokeColor=#9673a6;" vertex="1" parent="1">
          <mxGeometry x="40" y="320" width="280" height="200" as="geometry" />
        </mxCell>
        <mxCell id="4" value="docker-compose up" style="endArrow=classic;html=1;rounded=0;entryX=0.5;entryY=0;entryDx=0;entryDy=0;" edge="1" parent="1" source="2" target="3">
          <mxGeometry width="50" height="50" relative="1" as="geometry">
            <mxPoint x="95" y="240" as="sourcePoint" />
            <mxPoint x="180" y="320" as="targetPoint" />
          </mxGeometry>
        </mxCell>
        <mxCell id="5" value="API Container&lt;br&gt;(FastAPI)" style="shape=cube;whiteSpace=wrap;html=1;boundedLbl=1;backgroundOutline=1;darkOpacity=0.05;fillColor=#f8cecc;strokeColor=#b85450;" vertex="1" parent="1">
          <mxGeometry x="70" y="360" width="100" height="60" as="geometry" />
        </mxCell>
        <mxCell id="6" value="DB Container&lt;br&gt;(PostgreSQL)" style="shape=cube;whiteSpace=wrap;html=1;boundedLbl=1;backgroundOutline=1;darkOpacity=0.05;fillColor=#dae8fc;strokeColor=#6c8ebf;" vertex="1" parent="1">
          <mxGeometry x="70" y="440" width="100" height="60" as="geometry" />
        </mxCell>
        <mxCell id="7" value="GitHub Repository" style="shape=image;html=1;verticalAlign=top;verticalLabelPosition=bottom;labelBackgroundColor=#ffffff;image=https://cdn-icons-png.flaticon.com/512/25/25231.png" vertex="1" parent="1">
          <mxGeometry x="400" y="180" width="80" height="80" as="geometry" />
        </mxCell>
        <mxCell id="8" value="git push" style="endArrow=classic;html=1;rounded=0;" edge="1" parent="1" source="2" target="7">
          <mxGeometry width="50" height="50" relative="1" as="geometry">
            <mxPoint x="110" y="210" as="sourcePoint" />
            <mxPoint x="400" y="220" as="targetPoint" />
          </mxGeometry>
        </mxCell>
        <mxCell id="9" value="CI/CD Pipeline (GitHub Actions)" style="rounded=1;whiteSpace=wrap;html=1;dashed=1;fillColor=#fff2cc;strokeColor=#d6b656;" vertex="1" parent="1">
          <mxGeometry x="580" y="40" width="540" height="500" as="geometry" />
        </mxCell>
        <mxCell id="10" value="Triggers" style="endArrow=classic;html=1;rounded=0;entryX=0;entryY=0.5;entryDx=0;entryDy=0;" edge="1" parent="1" source="7" target="9">
          <mxGeometry width="50" height="50" relative="1" as="geometry">
            <mxPoint x="480" y="220" as="sourcePoint" />
            <mxPoint x="580" y="290" as="targetPoint" />
          </mxGeometry>
        </mxCell>
        <mxCell id="11" value="1. Test Job" style="rounded=0;whiteSpace=wrap;html=1;fillColor=#d5e8d4;strokeColor=#82b366;" vertex="1" parent="1">
          <mxGeometry x="620" y="80" width="120" height="60" as="geometry" />
        </mxCell>
        <mxCell id="12" value="2. Security Scan" style="rounded=0;whiteSpace=wrap;html=1;fillColor=#d5e8d4;strokeColor=#82b366;" vertex="1" parent="1">
          <mxGeometry x="620" y="160" width="120" height="60" as="geometry" />
        </mxCell>
        <mxCell id="13" value="3. Build &amp; Push" style="rounded=0;whiteSpace=wrap;html=1;fillColor=#d5e8d4;strokeColor=#82b366;" vertex="1" parent="1">
          <mxGeometry x="780" y="120" width="120" height="60" as="geometry" />
        </mxCell>
        <mxCell id="14" value="4. Deploy" style="rounded=0;whiteSpace=wrap;html=1;fillColor=#d5e8d4;strokeColor=#82b366;" vertex="1" parent="1">
          <mxGeometry x="960" y="120" width="120" height="60" as="geometry" />
        </mxCell>
        <mxCell id="15" value="" style="endArrow=classic;html=1;rounded=0;" edge="1" parent="1" source="11" target="13">
          <mxGeometry width="50" height="50" relative="1" as="geometry">
            <mxPoint x="740" y="110" as="sourcePoint" />
            <mxPoint x="780" y="150" as="targetPoint" />
          </mxGeometry>
        </mxCell>
        <mxCell id="16" value="" style="endArrow=classic;html=1;rounded=0;" edge="1" parent="1" source="12" target="13">
          <mxGeometry width="50" height="50" relative="1" as="geometry">
            <mxPoint x="740" y="190" as="sourcePoint" />
            <mxPoint x="780" y="150" as="targetPoint" />
          </mxGeometry>
        </mxCell>
        <mxCell id="17" value="" style="endArrow=classic;html=1;rounded=0;" edge="1" parent="1" source="13" target="14">
          <mxGeometry width="50" height="50" relative="1" as="geometry">
            <mxPoint x="900" y="150" as="sourcePoint" />
            <mxPoint x="960" y="150" as="targetPoint" />
          </mxGeometry>
        </mxCell>
        <mxCell id="18" value="Google Cloud Platform (GCP)" style="rounded=1;whiteSpace=wrap;html=1;dashed=1;fillColor=#dae8fc;strokeColor=#6c8ebf;" vertex="1" parent="1">
          <mxGeometry x="1200" y="40" width="460" height="500" as="geometry" />
        </mxCell>
        <mxCell id="19" value="Pushes Image" style="endArrow=classic;html=1;rounded=0;entryX=0;entryY=0.25;entryDx=0;entryDy=0;" edge="1" parent="1" source="13" target="20">
          <mxGeometry width="50" height="50" relative="1" as="geometry">
            <mxPoint x="900" y="150" as="sourcePoint" />
            <mxPoint x="1240" y="100" as="targetPoint" />
          </mxGeometry>
        </mxCell>
        <mxCell id="20" value="Google Container Registry" style="shape=mxgraph.gcp2.container_registry;html=1;pointerEvents=1;dashed=0;fillColor=#5184F3;strokeColor=none;strokeWidth=1;" vertex="1" parent="1">
          <mxGeometry x="1240" y="80" width="150" height="78" as="geometry" />
        </mxCell>
        <mxCell id="21" value="Applies Terraform" style="endArrow=classic;html=1;rounded=0;entryX=0;entryY=0.5;entryDx=0;entryDy=0;" edge="1" parent="1" source="14" target="18">
          <mxGeometry width="50" height="50" relative="1" as="geometry">
            <mxPoint x="1080" y="150" as="sourcePoint" />
            <mxPoint x="1200" y="290" as="targetPoint" />
          </mxGeometry>
        </mxCell>
        <mxCell id="22" value="VPC Network" style="rounded=1;whiteSpace=wrap;html=1;dashed=1;fillColor=none;strokeColor=#d6b656;" vertex="1" parent="1">
          <mxGeometry x="1220" y="200" width="420" height="320" as="geometry" />
        </mxCell>
        <mxCell id="23" value="Cloud Run" style="shape=mxgraph.gcp2.cloud_run;html=1;pointerEvents=1;dashed=0;fillColor=#5184F3;strokeColor=none;strokeWidth=1;" vertex="1" parent="1">
          <mxGeometry x="1420" y="240" width="150" height="78" as="geometry" />
        </mxCell>
        <mxCell id="24" value="Cloud SQL" style="shape=mxgraph.gcp2.cloud_sql;html=1;pointerEvents=1;dashed=0;fillColor=#5184F3;strokeColor=none;strokeWidth=1;" vertex="1" parent="1">
          <mxGeometry x="1260" y="380" width="150" height="78" as="geometry" />
        </mxCell>
        <mxCell id="25" value="Secret Manager" style="shape=mxgraph.gcp2.secret_manager;html=1;pointerEvents=1;dashed=0;fillColor=#5184F3;strokeColor=none;strokeWidth=1;" vertex="1" parent="1">
          <mxGeometry x="1460" y="380" width="150" height="78" as="geometry" />
        </mxCell>
        <mxCell id="26" value="Pulls Image" style="endArrow=classic;html=1;rounded=0;exitX=0.5;exitY=1;exitDx=0;exitDy=0;entryX=0;entryY=0.5;entryDx=0;entryDy=0;" edge="1" parent="1" source="20" target="23">
          <mxGeometry width="50" height="50" relative="1" as="geometry">
            <mxPoint x="1315" y="158" as="sourcePoint" />
            <mxPoint x="1420" y="279" as="targetPoint" />
            <Array as="points">
              <mxPoint x="1315" y="279" />
            </Array>
          </mxGeometry>
        </mxCell>
        <mxCell id="27" value="Private Connection" style="endArrow=classic;html=1;rounded=0;exitX=0;exitY=0.5;exitDx=0;exitDy=0;entryX=1;entryY=0.5;entryDx=0;entryDy=0;" edge="1" parent="1" source="23" target="24">
          <mxGeometry width="50" height="50" relative="1" as="geometry">
            <mxPoint x="1420" y="279" as="sourcePoint" />
            <mxPoint x="1410" y="419" as="targetPoint" />
            <Array as="points">
              <mxPoint x="1420" y="340" />
              <mxPoint x="1335" y="340" />
              <mxPoint x="1335" y="419" />
            </Array>
          </mxGeometry>
        </mxCell>
        <mxCell id="28" value="Reads Secret" style="endArrow=classic;html=1;rounded=0;exitX=0.5;exitY=1;exitDx=0;exitDy=0;entryX=0.5;entryY=0;entryDx=0;entryDy=0;" edge="1" parent="1" source="23" target="25">
          <mxGeometry width="50" height="50" relative="1" as="geometry">
            <mxPoint x="1495" y="318" as="sourcePoint" />
            <mxPoint x="1535" y="380" as="targetPoint" />
          </mxGeometry>
        </mxCell>
        <mxCell id="29" value="Lint, Format, Test" style="text;html=1;strokeColor=none;fillColor=none;align=center;verticalAlign=middle;whiteSpace=wrap;rounded=0;" vertex="1" parent="1">
          <mxGeometry x="620" y="50" width="120" height="30" as="geometry" />
        </mxCell>
        <mxCell id="30" value="Trivy Scan" style="text;html=1;strokeColor=none;fillColor=none;align=center;verticalAlign=middle;whiteSpace=wrap;rounded=0;" vertex="1" parent="1">
          <mxGeometry x="620" y="220" width="120" height="30" as="geometry" />
        </mxCell>
        <mxCell id="31" value="Docker Build &amp; Push to GCR" style="text;html=1;strokeColor=none;fillColor=none;align=center;verticalAlign=middle;whiteSpace=wrap;rounded=0;" vertex="1" parent="1">
          <mxGeometry x="780" y="180" width="120" height="30" as="geometry" />
        </mxCell>
        <mxCell id="32" value="Terraform Apply" style="text;html=1;strokeColor=none;fillColor=none;align=center;verticalAlign=middle;whiteSpace=wrap;rounded=0;" vertex="1" parent="1">
          <mxGeometry x="960" y="180" width="120" height="30" as="geometry" />
        </mxCell>
      </root>
    </mxGraphModel>
  </diagram>
</mxfile>